<svg xmlns="http://www.w3.org/2000/svg" width="41" height="44">
    <path fill="#D1DAE2" fill-rule="evenodd" d="M27.673 38.133c-.678 3.347-3.631 5.865-7.172 5.865-3.543 0-6.496-2.518-7.175-5.865H0l5.857-11.732V14.666c0-8.1 6.555-14.667 14.644-14.667 8.087 0 14.642 6.567 14.642 14.667v11.735L41 38.133H27.673zm-7.172 2.935c1.907 0 3.516-1.229 4.123-2.935h-8.247c.604 1.706 2.213 2.935 4.124 2.935zm11.713-14.667V14.666c0-6.48-5.245-11.734-11.713-11.734-6.471 0-11.715 5.254-11.715 11.734v11.735L4.392 35.2h32.215l-4.393-8.799z"/>
</svg>
