<?xml version="1.0" encoding="utf-8"?>
<!-- Generator: Adobe Illustrator 19.2.1, SVG Export Plug-In . SVG Version: 6.00 Build 0)  -->
<svg version="1.1" id="Layer_1" xmlns="http://www.w3.org/2000/svg" xmlns:xlink="http://www.w3.org/1999/xlink" x="0px" y="0px"
	 viewBox="0 0 151 94.5" style="enable-background:new 0 0 151 94.5;" xml:space="preserve">
<defs><style>.dw-logo{fill:white;}</style></defs>
<g>
	<path class="dw-logo" d="M53.3,65.8c-1,1.7-2.3,2.9-3.9,3.6c-1.6,0.7-3.4,1.1-5.5,1.1c-2.3,0-4.3-0.4-6.1-1.3c-1.8-0.9-3.2-2.1-4.3-3.6
		c-1.1-1.5-2-3.3-2.6-5.3c-0.6-2-0.9-4.1-0.9-6.2c0-2.1,0.3-4.1,0.9-6c0.6-1.9,1.4-3.6,2.6-5.1c1.1-1.5,2.6-2.7,4.3-3.6
		c1.7-0.9,3.7-1.3,6-1.3c1.8,0,3.6,0.4,5.2,1.2c1.7,0.8,3,1.9,3.9,3.4H53V27.1h8.5v42.7h-8.1v-3.9H53.3z M53,50.6
		c-0.2-1.2-0.6-2.2-1.2-3.1c-0.6-0.9-1.3-1.6-2.2-2.2c-0.9-0.6-2.1-0.8-3.5-0.8c-1.4,0-2.6,0.3-3.5,0.8c-1,0.6-1.7,1.3-2.3,2.2
		c-0.6,0.9-1,2-1.3,3.1c-0.3,1.2-0.4,2.4-0.4,3.7c0,1.2,0.1,2.4,0.4,3.6c0.3,1.2,0.7,2.3,1.3,3.2c0.6,0.9,1.4,1.7,2.3,2.3
		c0.9,0.6,2.1,0.9,3.4,0.9c1.4,0,2.6-0.3,3.5-0.8c0.9-0.6,1.7-1.3,2.2-2.2c0.6-0.9,1-2,1.2-3.2c0.2-1.2,0.4-2.4,0.4-3.7
		C53.3,53,53.2,51.7,53,50.6z"/>
	<path class="dw-logo" d="M100.1,69.8l-7.2-29.1h-0.1l-7.1,29.1h-9.5L64.9,27.1h9.4L81,56.1h0.1l7.4-29.1h8.8l7.3,29.4h0.1l7-29.4h9.2l-11.5,42.7
		H100.1z"/>
</g>
</svg>
