<svg xmlns="http://www.w3.org/2000/svg" width="44" height="44">
    <path fill="#D1DAE2" fill-rule="evenodd" d="M37.714 44h-6.285a6.285 6.285 0 0 1-6.286-6.285v-6.286a6.286 6.286 0 0 1 6.286-6.287h6.285A6.286 6.286 0 0 1 44 31.429v6.286A6.285 6.285 0 0 1 37.714 44zm3.143-12.571a3.143 3.143 0 0 0-3.143-3.143h-6.285a3.143 3.143 0 0 0-3.143 3.143v6.286a3.143 3.143 0 0 0 3.143 3.143h6.285a3.143 3.143 0 0 0 3.143-3.143v-6.286zm-3.143-12.572h-6.285a6.285 6.285 0 0 1-6.286-6.284V6.287a6.287 6.287 0 0 1 6.286-6.288h6.285A6.287 6.287 0 0 1 44 6.287v6.286a6.285 6.285 0 0 1-6.286 6.284zm3.143-12.57a3.142 3.142 0 0 0-3.143-3.143h-6.285a3.142 3.142 0 0 0-3.143 3.143v6.286a3.143 3.143 0 0 0 3.143 3.143h6.285a3.143 3.143 0 0 0 3.143-3.143V6.287zM12.571 44H6.286A6.286 6.286 0 0 1 0 37.715v-6.286a6.287 6.287 0 0 1 6.286-6.287h6.285a6.286 6.286 0 0 1 6.286 6.287v6.286A6.285 6.285 0 0 1 12.571 44zm3.143-12.571a3.143 3.143 0 0 0-3.143-3.143H6.286a3.143 3.143 0 0 0-3.143 3.143v6.286a3.143 3.143 0 0 0 3.143 3.143h6.285a3.143 3.143 0 0 0 3.143-3.143v-6.286zm-3.143-12.572H6.286A6.286 6.286 0 0 1 0 12.573V6.287A6.288 6.288 0 0 1 6.286-.001h6.285a6.287 6.287 0 0 1 6.286 6.288v6.286a6.285 6.285 0 0 1-6.286 6.284zm3.143-12.57a3.142 3.142 0 0 0-3.143-3.143H6.286a3.142 3.142 0 0 0-3.143 3.143v6.286a3.143 3.143 0 0 0 3.143 3.143h6.285a3.143 3.143 0 0 0 3.143-3.143V6.287z"/>
</svg>
