<svg xmlns="http://www.w3.org/2000/svg" width="47" height="47">
    <path fill="#D1DAE2" fill-rule="evenodd" d="M41.125 47H5.875A5.875 5.875 0 0 1 0 41.125V5.875A5.875 5.875 0 0 1 5.875 0h35.25A5.875 5.875 0 0 1 47 5.875v35.25A5.875 5.875 0 0 1 41.125 47zm2.938-41.125a2.938 2.938 0 0 0-2.938-2.937H5.875a2.937 2.937 0 0 0-2.937 2.937v35.25a2.937 2.937 0 0 0 2.937 2.938h35.25a2.938 2.938 0 0 0 2.938-2.938V5.875zm-11.174 9.451a1.47 1.47 0 1 0-2.544-1.469l-9.393 16.269-5.255-4.847a1.468 1.468 0 1 0-2.144 2.009l6.715 6.193a1.47 1.47 0 0 0 2.076.068c.18-.168 10.545-18.223 10.545-18.223z"/>
</svg>
