<svg xmlns="http://www.w3.org/2000/svg" width="50" height="49">
    <defs>
        <filter id="a">
            <feFlood flood-color="#D1DAE2" flood-opacity="1" result="floodOut"/>
            <feComposite in="floodOut" in2="SourceGraphic" operator="atop" result="compOut"/>
            <feBlend in="compOut" in2="SourceGraphic"/>
        </filter>
    </defs>
    <path fill="#F50" fill-rule="evenodd" d="M24.711 42.874c-1.557 0-3.076-.14-4.552-.387L9.488 49.001V38.158C3.924 34.229.354 28.205.354 21.438.354 9.598 11.259 0 24.711 0c13.453 0 24.358 9.598 24.358 21.438 0 11.839-10.905 21.436-24.358 21.436zm0-39.812c-11.771 0-21.312 8.227-21.312 18.376 0 6.227 3.6 11.719 9.096 15.042l-.097 7.103 7.168-4.333a24.48 24.48 0 0 0 5.145.562c11.771 0 21.313-8.226 21.313-18.374 0-10.149-9.542-18.376-21.313-18.376zm10.657 16.845H14.055a1.527 1.527 0 0 1-1.522-1.532c0-.846.681-1.532 1.522-1.532h21.313c.841 0 1.522.686 1.522 1.532s-.681 1.532-1.522 1.532zM17.1 26.032h15.223c.841 0 1.522.686 1.522 1.531 0 .846-.681 1.531-1.522 1.531H17.1a1.526 1.526 0 0 1-1.522-1.531c0-.845.681-1.531 1.522-1.531z" filter="url(#a)"/>
</svg>
