<svg xmlns="http://www.w3.org/2000/svg" viewBox="15 15 75 75">
  <defs>
    <filter id="a">
      <feFlood flood-color="#FFF" flood-opacity="1" result="floodOut"/>
      <feComposite in="floodOut" in2="SourceGraphic" operator="atop" result="compOut"/>
      <feBlend in="compOut" in2="SourceGraphic"/>
    </filter>
  </defs>
  <g fill="#FFF" filter="url(#a)">
    <path d="m45.5 39.5h18c1.1016 0 2-0.89844 2-2s-0.89844-2-2-2h-18c-1.1016 0-2 0.89844-2 2s0.89844 2 2 2z" />
    <path d="m70.5 49.5h-25c-1.1016 0-2 0.89844-2 2s0.89844 2 2 2h25c1.1016 0 2-0.89844 2-2s-0.89844-2-2-2z" />
    <path d="m85.5 27.5c0-5.5-4.5-10-10-10h-35c-5.5 0-10 4.5-10 10v20h-6c-5.5 0-10 4.5-10 10v16c0 5.5 4.5 10 10 10h49c6.6016 0 12-5.3984 12-12zm-55 46c0 3.3008-2.6992 6-6 6s-6-2.6992-6-6v-16c0-3.3008 2.6992-6 6-6h6zm51-2c0 4.3984-3.6016 8-8 8h-41c1.3008-1.6992 2-3.8008 2-6v-46c0-3.3008 2.6992-6 6-6h35c3.3008 0 6 2.6992 6 6z" />
    <path d="m63.5 62.5h-18c-1.1016 0-2 0.89844-2 2s0.89844 2 2 2h18c1.1016 0 2-0.89844 2-2s-0.89844-2-2-2z" />
  </g>
</svg>
