<svg xmlns="http://www.w3.org/2000/svg" width="45" height="45">
    <path fill="#D1DAE2" fill-rule="evenodd" d="M44.562 44.569c-.569.56-1.49.56-2.059 0L30.842 33.094a19.032 19.032 0 0 1-11.914 4.16C8.474 37.254 0 28.914 0 18.627 0 8.34 8.474 0 18.928 0s18.928 8.34 18.928 18.627c0 4.81-1.868 9.18-4.91 12.485l11.616 11.431a1.416 1.416 0 0 1 0 2.026zM18.928 2.866c-8.845 0-16.016 7.056-16.016 15.761 0 8.705 7.171 15.761 16.016 15.761 8.846 0 16.016-7.056 16.016-15.761 0-8.705-7.17-15.761-16.016-15.761z"/>
</svg>
