<svg id="Line_20" data-name="Line 20" xmlns="http://www.w3.org/2000/svg" viewBox="0 0 32 32"><defs><style>.cls-1{fill:silver;}</style></defs><title>x</title><g id="_10" data-name="10"><path class="cls-1" d="M584,1087a16,16,0,1,0,16,16A16,16,0,0,0,584,1087Zm0,30a14,14,0,1,1,14-14A14,14,0,0,1,584,1117Zm5.72-19.72a1,1,0,0,0-1.42,0l-4.3,4.3-4.24-4.24a1,1,0,0,0-1.41,1.41l4.24,4.24-4.27,4.27a1,1,0,0,0,1.43,1.42l4.27-4.27,4.24,4.24a1,1,0,1,0,1.41-1.41l-4.24-4.24,4.3-4.3A1,1,0,0,0,589.72,1097.28Z" transform="translate(-568 -1087)"/></g></svg>