<svg id="Line_5" data-name="Line 5" xmlns="http://www.w3.org/2000/svg" viewBox="0 0 22 32"><defs><style>.cls-1{fill:silver;}</style></defs><title>account</title><g id="_6" data-name="6"><path class="cls-1" d="M383,323.35a10.66,10.66,0,0,0,2-6.35c0-5.52-4-10-9-10s-9,4.48-9,10a10.66,10.66,0,0,0,2,6.35,6,6,0,0,0-4,5.65v4a6,6,0,0,0,6,6h10a6,6,0,0,0,6-6v-4A6,6,0,0,0,383,323.35ZM369,317c0-4.42,3.13-8,7-8s7,3.58,7,8-3.13,8-7,8S369,321.42,369,317Zm16,15.5a4.72,4.72,0,0,1-4.91,4.5h-8.18a4.72,4.72,0,0,1-4.91-4.5v-3a4.6,4.6,0,0,1,3.78-4.37,8.24,8.24,0,0,0,10.45,0A4.6,4.6,0,0,1,385,329.5v3Z" transform="translate(-365 -307)"/></g></svg>