<svg id="Line_17" data-name="Line 17" xmlns="http://www.w3.org/2000/svg" viewBox="0 0 28 28"><defs><style>.cls-1{fill:silver;}</style></defs><title>board</title><g id="_1" data-name="1"><path class="cls-1" d="M110,949h-4a4,4,0,0,0-4,4v4a4,4,0,0,0,4,4h4a4,4,0,0,0,4-4v-4A4,4,0,0,0,110,949Zm2,8a2,2,0,0,1-2,2h-4a2,2,0,0,1-2-2v-4a2,2,0,0,1,2-2h4a2,2,0,0,1,2,2v4Zm-2-24h-4a4,4,0,0,0-4,4v4a4,4,0,0,0,4,4h4a4,4,0,0,0,4-4v-4A4,4,0,0,0,110,933Zm2,8a2,2,0,0,1-2,2h-4a2,2,0,0,1-2-2v-4a2,2,0,0,1,2-2h4a2,2,0,0,1,2,2v4Zm14,8h-4a4,4,0,0,0-4,4v4a4,4,0,0,0,4,4h4a4,4,0,0,0,4-4v-4A4,4,0,0,0,126,949Zm2,8a2,2,0,0,1-2,2h-4a2,2,0,0,1-2-2v-4a2,2,0,0,1,2-2h4a2,2,0,0,1,2,2v4Zm-2-24h-4a4,4,0,0,0-4,4v4a4,4,0,0,0,4,4h4a4,4,0,0,0,4-4v-4A4,4,0,0,0,126,933Zm2,8a2,2,0,0,1-2,2h-4a2,2,0,0,1-2-2v-4a2,2,0,0,1,2-2h4a2,2,0,0,1,2,2v4Z" transform="translate(-102 -933)"/></g></svg>
