<svg id="Line_2" data-name="Line 2" xmlns="http://www.w3.org/2000/svg" viewBox="0 0 30 32"><defs><style>.cls-1{fill:silver;}</style></defs><title>calendar</title><g id="_10" data-name="10"><path class="cls-1" d="M592,177a3,3,0,1,0-3-3A3,3,0,0,0,592,177Zm-1-4h2v2h-2v-2Zm1-4a3,3,0,1,0-3-3A3,3,0,0,0,592,169Zm-1-4h2v2h-2v-2Zm4-14H573a4,4,0,0,0-4,4v24a4,4,0,0,0,4,4h22a4,4,0,0,0,4-4V155A4,4,0,0,0,595,151Zm2,28a2,2,0,0,1-2,2H573a2,2,0,0,1-2-2V159h26v20Zm0-22H571v-2a2,2,0,0,1,2-2h22a2,2,0,0,1,2,2v2Zm-13,20a3,3,0,1,0-3-3A3,3,0,0,0,584,177Zm-1-4h2v2h-2v-2Zm-7-4a3,3,0,1,0-3-3A3,3,0,0,0,576,169Zm-1-4h2v2h-2v-2Zm9,4a3,3,0,1,0-3-3A3,3,0,0,0,584,169Zm-1-4h2v2h-2v-2Zm-7,12a3,3,0,1,0-3-3A3,3,0,0,0,576,177Zm-1-4h2v2h-2v-2Z" transform="translate(-569 -151)"/></g></svg>