<svg fill="#FF5500" xmlns:dc="http://purl.org/dc/elements/1.1/" xmlns:cc="http://creativecommons.org/ns#" xmlns:rdf="http://www.w3.org/1999/02/22-rdf-syntax-ns#" xmlns:svg="http://www.w3.org/2000/svg" xmlns="http://www.w3.org/2000/svg" xmlns:sodipodi="http://sodipodi.sourceforge.net/DTD/sodipodi-0.dtd" xmlns:inkscape="http://www.inkscape.org/namespaces/inkscape" version="1.1" x="0px" y="0px" viewBox="0 0 100 100"><g transform="translate(0,-952.36218)"><path style="font-size:medium;font-style:normal;font-variant:normal;font-weight:normal;font-stretch:normal;text-indent:0;text-align:start;text-decoration:none;line-height:normal;letter-spacing:normal;word-spacing:normal;text-transform:none;direction:ltr;block-progression:tb;writing-mode:lr-tb;text-anchor:start;baseline-shift:baseline;opacity:1;color:#000000;fill:#FF5500;fill-opacity:1;stroke:none;stroke-width:1.99999988000000010;marker:none;visibility:visible;display:inline;overflow:visible;enable-background:accumulate;font-family:Sans;-inkscape-font-specification:Sans" d="M 10.8125 10 A 1.0000999 1.0000999 0 0 0 10 11 L 10 89 A 1.0000999 1.0000999 0 0 0 11 90 L 89 90 A 1.0000999 1.0000999 0 0 0 90 89 L 90 11 A 1.0000999 1.0000999 0 0 0 89 10 L 11 10 A 1.0000999 1.0000999 0 0 0 10.8125 10 z M 12 12 L 88 12 L 88 88 L 12 88 L 12 12 z M 71.96875 32.96875 A 1.0000999 1.0000999 0 0 0 71.28125 33.28125 L 41 64.5625 L 28.71875 52.28125 A 1.0054956 1.0054956 0 1 0 27.28125 53.6875 L 40.28125 66.6875 A 1.0000999 1.0000999 0 0 0 41.71875 66.6875 L 72.71875 34.6875 A 1.0000999 1.0000999 0 0 0 71.96875 32.96875 z " transform="translate(0,952.36218)"></path></g></svg>