<svg fill="#FF5500" xmlns="http://www.w3.org/2000/svg" xmlns:xlink="http://www.w3.org/1999/xlink" version="1.1" x="0px" y="0px" viewBox="0 0 100 100" enable-background="new 0 0 100 100" xml:space="preserve"><g><path fill="#FF5500" d="M86.104,44.965H63.922c-4.9,0-8.884-3.984-8.884-8.873V13.893c0-4.9,3.983-8.884,8.884-8.884h22.182   c4.9,0,8.896,3.984,8.896,8.884v22.199C95,40.981,91.004,44.965,86.104,44.965z M63.922,13.893v22.199h22.205l-0.023-22.199H63.922   z"></path><path fill="#FF5500" d="M36.061,44.965H13.873c-4.9,0-8.884-3.984-8.884-8.873V13.893c0-4.9,3.984-8.884,8.884-8.884h22.188   c4.9,0,8.884,3.984,8.884,8.884v22.199C44.945,40.981,40.961,44.965,36.061,44.965z M13.873,13.893v22.199h22.199l-0.011-22.199   H13.873z"></path><path fill="#FF5500" d="M86.104,95.01H63.922c-4.9,0-8.884-3.974-8.884-8.874V63.932c0-4.89,3.983-8.873,8.884-8.873h22.182   c4.9,0,8.896,3.983,8.896,8.873v22.204C95,91.036,91.004,95.01,86.104,95.01z M63.922,63.932v22.204h22.205l-0.023-22.204H63.922z"></path><path fill="#FF5500" d="M36.061,95.01H13.873c-4.9,0-8.884-3.974-8.884-8.874V63.932c0-4.89,3.984-8.873,8.884-8.873h22.188   c4.9,0,8.884,3.983,8.884,8.873v22.204C44.945,91.036,40.961,95.01,36.061,95.01z M13.873,63.932v22.204h22.199l-0.011-22.204   H13.873z"></path></g></svg>