<svg id="Line_1" data-name="Line 1" xmlns="http://www.w3.org/2000/svg" viewBox="0 0 26 32.01"><defs><style>.cls-1{fill:silver;}</style></defs><title>document</title><g id="_1" data-name="1"><path class="cls-1" d="M122,121H110a1,1,0,0,0,0,2h12A1,1,0,0,0,122,121Zm0-6H110a1,1,0,0,0,0,2h12A1,1,0,0,0,122,115Zm-1-16v0c-0.13,0-.66,0-2,0H107a4,4,0,0,0-4,4v24a4,4,0,0,0,4,4h18a4,4,0,0,0,4-4V107Zm6,28a2,2,0,0,1-2,2H107a2,2,0,0,1-2-2V103a2,2,0,0,1,2-2h12c0,2.39,0,4,0,4a4,4,0,0,0,4,4h4v18Zm-4-20a2,2,0,0,1-2-2v-4l6,6h-4Z" transform="translate(-103 -98.99)"/></g></svg>