<svg fill="#FF5500" xmlns="http://www.w3.org/2000/svg" xmlns:xlink="http://www.w3.org/1999/xlink" version="1.1" x="0px" y="0px" viewBox="0 0 30 30" xml:space="preserve"><g transform="translate(-570 -380)"><g xmlns="http://www.w3.org/2000/svg" xmlns:xlink="http://www.w3.org/1999/xlink"><path d="M595.004,402H595v-7v-10c0-1.656-1.343-3-3-3h-17c-1.656,0-3,1.344-3,3c0,1.656,1.344,3,3,3l0,0c0.002,0,0.003,0,0.004,0    h1H577v7v10c0,1.656,1.344,3,3,3c0.021,0,0.038-0.006,0.059-0.006h14.945V408c1.657,0,3-1.344,3-3    C598.004,403.343,596.661,402,595.004,402z M575,383c1.104,0,2,0.897,2,2v0.961c-0.021-1.084-0.906-1.961-1.996-1.961    c-0.932,0-1.71,0.643-1.931,1.506C573.03,385.344,573,385.176,573,385C573,383.897,573.897,383,575,383z M574.004,386    c0-0.551,0.449-1,1-1c0.552,0,1,0.449,1,1s-0.448,1-1,1C574.453,387,574.004,386.551,574.004,386z M578,405v-10v-7h0.004v-2H578    v-1c0-0.772-0.3-1.469-0.778-2H592c1.103,0,2,0.897,2,2v10v7h-13.996c-0.001,0-0.001,0-0.002,0c-0.001,0-0.001,0-0.002,0l0,0    c-1.101,0.002-1.996,0.898-1.996,2c0,1.103,0.897,2,2,2c0.928,0,1.701-0.637,1.928-1.494c0.04,0.159,0.068,0.322,0.068,0.494    c0,1.083-0.865,1.963-1.941,1.994h-0.063V407C578.896,406.998,578,406.102,578,405z M581.004,404c0,0.551-0.448,1-1,1    c-0.551,0-1-0.449-1-1s0.448-0.999,0.999-1c0.002,0,0.003,0.001,0.005,0.001C580.558,403.003,581.004,403.45,581.004,404z     M595.004,407v-0.006h-12.777C582.702,406.463,583,405.77,583,405c0-0.772-0.3-1.469-0.778-2h12.782c1.103,0,2,0.897,2,2    C597.004,406.103,596.107,407,595.004,407z"></path><rect x="580" y="387" width="13" height="1"></rect><rect x="580" y="390" width="13" height="1"></rect><rect x="580" y="393" width="13" height="1"></rect><rect x="580" y="396" width="13" height="1"></rect><rect x="580" y="399" width="13" height="1"></rect><path style="" d="M595,407v-0.006h-12.777c0.476-0.531,0.773-1.225,0.773-1.994c0-0.772-0.3-1.469-0.778-2H595    c1.103,0,2,0.897,2,2C597,406.103,596.103,407,595,407z" opacity="0"></path><path style="" d="M575,383c1.104,0,2,0.897,2,2v0.961c-0.021-1.084-0.906-1.961-1.996-1.961    c-0.932,0-1.71,0.643-1.931,1.506C573.03,385.344,573,385.176,573,385C573,383.897,573.897,383,575,383z" opacity="0"></path></g></g></svg>