<svg id="Line_13" data-name="Line 13" xmlns="http://www.w3.org/2000/svg" viewBox="0 0 30.97 30.97"><defs><style>.cls-1{fill:silver;}</style></defs><title>link</title><g id="_2" data-name="2"><path class="cls-1" d="M171.7,735.28a1,1,0,0,0-1.43,0l-5,5a1,1,0,0,0,1.43,1.43l5-5A1,1,0,0,0,171.7,735.28Zm-11.8,16.07a2,2,0,0,1-2.86,0l-1.43-1.43a2,2,0,0,1,0-2.86l9.61-9.61a4,4,0,0,0-3.89,1l-7.15,7.15a4,4,0,0,0,0,5.72l1.43,1.43a4,4,0,0,0,5.72,0l7.15-7.15a4,4,0,0,0,1-3.89Zm22.88-25.74-1.43-1.43a4,4,0,0,0-5.72,0l-7.15,7.15a4,4,0,0,0-1,3.89l9.61-9.61a2,2,0,0,1,2.86,0l1.43,1.43a2,2,0,0,1,0,2.86l-9.61,9.61a4,4,0,0,0,3.89-1l7.15-7.15A4,4,0,0,0,182.79,725.61Z" transform="translate(-153 -723)"/></g></svg>