<svg fill="#FF5500" xmlns="http://www.w3.org/2000/svg" xmlns:xlink="http://www.w3.org/1999/xlink" version="1.1" x="0px" y="0px" viewBox="0 0 100 100" enable-background="new 0 0 100 100" xml:space="preserve"><path d="M6.75,98.27c-0.231,0-0.462-0.08-0.648-0.238c-0.339-0.288-0.446-0.766-0.264-1.171c1.532-3.412,2.856-6.476,4.025-9.18  c2.755-6.375,4.954-11.462,7.88-16.477c-5.337-6.974-8.155-15.297-8.155-24.115c0-21.9,17.817-39.717,39.718-39.717  s39.719,17.817,39.719,39.717c0,21.901-17.818,39.72-39.719,39.72c-6.52,0-12.96-1.608-18.672-4.656  c-6.003,4.572-11.945,8.473-19.412,13.375L7.3,98.104C7.132,98.215,6.941,98.27,6.75,98.27z M49.306,9.372  c-20.798,0-37.718,16.92-37.718,37.717c0,8.593,2.816,16.69,8.145,23.416c0.258,0.325,0.288,0.776,0.076,1.133  c-3.036,5.097-5.165,10.021-8.11,16.837c-0.804,1.859-1.681,3.89-2.65,6.088l1.076-0.707c7.647-5.021,13.687-8.985,19.809-13.685  c0.317-0.243,0.747-0.272,1.095-0.081c5.557,3.087,11.877,4.719,18.278,4.719c20.798,0,37.719-16.921,37.719-37.72  C87.025,26.292,70.104,9.372,49.306,9.372z M64.061,35.74H33.144v2h30.917V35.74z M64.061,46.606H33.144v2h30.917V46.606z   M64.061,57.472H33.144v2h30.917V57.472z"></path></svg>