<svg id="Line_4" data-name="Line 4" xmlns="http://www.w3.org/2000/svg" viewBox="0 0 32 32"><defs><style>.cls-1{fill:silver;}</style></defs><title>message</title><g id="_2" data-name="2"><path class="cls-1" d="M173,272H163a1,1,0,0,0,0,2h10A1,1,0,0,0,173,272Zm2-6H161a1,1,0,0,0,0,2h14A1,1,0,0,0,175,266Zm-7-11c-8.84,0-16,6.27-16,14a13.4,13.4,0,0,0,6,10.92V287l7-4.25a18.34,18.34,0,0,0,3,.25c8.84,0,16-6.27,16-14S176.84,255,168,255Zm0,26a16.16,16.16,0,0,1-3.38-.37l-4.71,2.83,0.06-4.64a11.59,11.59,0,0,1-6-9.82c0-6.63,6.27-12,14-12s14,5.37,14,12S175.73,281,168,281Z" transform="translate(-152 -255)"/></g></svg>